<?xml version="1.0" encoding="UTF-8" standalone="no"?>
<!DOCTYPE svg PUBLIC "-//W3C//DTD SVG 20010904//EN" "http://www.w3.org/TR/2001/REC-SVG-20010904/DTD/svg10.dtd">
<svg version="1.0" xmlns="http://www.w3.org/2000/svg" width="110pt" height="126pt" viewBox="0 0 110 126" preserveAspectRatio="xMidYMid meet"><title>8 upload.wikimedia.org/wikipedia/commons/3/30/Tetrahedron_%28PSF%29.svg</title>
<metadata>
Created by potrace 1.8, written by Peter Selinger 2001-2007
</metadata>
<g transform="translate(0,126) scale(0.120000,-0.120000)" fill="#000000" stroke="none">
<path d="M439 1040 c0 -1 -2 -5 -3 -8 -2 -3 -6 -9 -8 -12 -3 -6 -16 -29 -23 -41 -1 -2 -5 -10 -9 -17 -4 -7 -10 -16 -12 -20 -2 -5 -6 -10 -7 -12 -2 -3 -6 -10 -10 -17 -4 -8 -11 -20 -15 -27 -5 -7 -10 -17 -12 -20 -2 -4 -6 -11 -9 -15 -3 -5 -8 -15 -13 -23 -4 -8 -10 -18 -13 -23 -2 -5 -6 -11 -7 -14 -5 -8 -22 -37 -26 -44 -2 -4 -7 -13 -12 -21 -5 -9 -9 -17 -10 -18 -1 -1 -6 -9 -10 -18 -10 -16 -17 -30 -25 -43 -2 -4 -6 -10 -8 -14 -2 -4 -5 -9 -7 -12 -2 -4 -12 -21 -22 -38 -9 -17 -19 -34 -21 -37 -6 -10 -40 -70 -42 -74 -1 -3 -4 -8 -6 -12 -5 -11 -11 -21 -15 -26 -2 -2 -3 -5 -3 -5 0 -1 -2 -4 -4 -7 -9 -16 -10 -17 -23 -43 -3 -4 -5 -8 -6 -9 0 -1 -2 -5 -4 -8 -2 -3 -4 -8 -6 -10 -2 -2 -3 -5 -4 -7 0 -2 -1 -3 -1 -4 -2 -1 -15 -23 -28 -48 -4 -8 -8 -15 -8 -16 -1 -1 -3 -4 -4 -7 -2 -6 -2 -6 -1 -9 3 -5 11 -15 26 -31 7 -8 22 -24 33 -36 10 -11 22 -24 26 -28 3 -4 13 -15 21 -24 9 -9 23 -25 33 -36 10 -10 23 -24 28 -30 6 -6 15 -17 21 -23 11 -12 24 -27 29 -34 5 -7 15 -18 18 -19 4 0 21 4 28 8 3 1 10 4 16 6 6 2 14 5 19 7 5 2 14 6 22 9 18 7 80 32 83 34 2 0 15 5 28 11 13 5 27 10 30 12 3 1 6 2 7 2 0 0 2 1 3 1 1 1 5 2 8 3 10 4 33 13 34 14 1 1 8 4 23 9 4 2 22 9 40 16 17 7 35 14 40 16 5 2 13 5 17 7 4 1 16 6 27 10 10 5 21 9 25 11 3 1 11 4 17 7 6 2 21 8 33 13 11 4 25 10 31 12 13 5 29 12 36 14 7 4 34 14 56 22 22 9 36 15 38 16 1 1 3 2 5 2 3 0 6 2 7 5 2 4 0 6 -4 6 -3 0 -3 1 -7 8 -3 5 -10 17 -16 27 -11 18 -21 35 -38 63 -5 8 -10 18 -12 21 -3 4 -7 11 -10 17 -4 6 -9 14 -12 19 -3 5 -7 11 -9 15 -5 8 -27 44 -30 50 -2 3 -5 9 -8 13 -2 3 -9 15 -15 25 -24 40 -42 72 -46 77 -1 1 -3 5 -5 9 -3 6 -7 11 -17 29 -4 6 -8 12 -9 15 -1 2 -4 6 -6 10 -2 3 -7 12 -12 20 -5 8 -10 18 -13 22 -3 4 -9 14 -13 23 -10 15 -14 22 -32 53 -7 10 -12 19 -13 21 -1 1 -5 9 -10 18 -5 8 -10 16 -11 19 -1 2 -4 6 -5 9 -8 12 -21 33 -22 37 -2 4 -13 23 -18 30 -2 3 -7 10 -10 17 -4 7 -9 15 -12 19 -2 4 -6 11 -8 15 -3 4 -6 10 -7 13 -2 2 -5 7 -6 10 -2 3 -5 8 -7 11 -2 3 -5 9 -8 14 -3 4 -6 9 -8 11 -1 3 -3 5 -4 7 -2 3 -8 3 -8 0z m9 -20 c8 -11 35 -57 41 -68 6 -12 30 -53 38 -65 4 -7 5 -9 11 -20 4 -6 9 -15 13 -21 3 -5 6 -10 6 -11 0 -1 18 -30 21 -33 1 -2 2 -4 3 -5 0 -3 12 -23 20 -36 4 -6 11 -18 17 -28 6 -10 15 -26 22 -36 6 -11 14 -26 19 -33 4 -7 11 -19 15 -26 19 -32 28 -47 31 -51 1 -3 7 -13 12 -22 6 -9 12 -20 15 -25 3 -5 8 -15 13 -22 13 -21 14 -23 22 -36 13 -23 33 -55 35 -58 1 -1 2 -3 2 -3 0 -1 3 -6 7 -12 4 -6 11 -19 17 -29 6 -10 14 -24 19 -32 4 -8 11 -19 15 -25 3 -7 9 -16 12 -21 9 -16 18 -31 17 -32 0 0 -7 0 -16 0 -13 0 -15 0 -18 -1 -2 -2 -3 -5 -1 -6 1 -1 3 -1 5 -2 2 0 4 -1 4 -1 0 -1 -9 -6 -22 -11 -3 -1 -8 -3 -10 -4 -2 -1 -10 -4 -16 -7 -7 -2 -17 -6 -23 -8 -11 -5 -16 -7 -52 -21 -11 -4 -26 -11 -34 -14 -9 -3 -18 -7 -20 -8 -3 -1 -25 -10 -49 -20 -44 -17 -50 -19 -76 -30 -8 -3 -20 -7 -27 -11 -7 -3 -17 -7 -21 -8 -5 -2 -13 -5 -18 -7 -5 -2 -18 -7 -28 -11 -10 -4 -23 -9 -28 -11 -5 -2 -15 -6 -22 -9 -8 -3 -21 -8 -30 -12 -10 -4 -24 -9 -32 -12 -8 -4 -22 -9 -31 -13 -17 -7 -23 -9 -34 -14 -4 -1 -14 -5 -22 -8 -9 -4 -17 -7 -18 -7 -5 -2 -5 -1 -3 10 1 5 4 18 5 29 2 10 5 25 7 32 1 7 4 21 6 31 5 30 12 64 14 79 2 8 4 18 4 22 1 3 2 8 2 10 2 8 11 57 14 70 2 7 4 17 4 22 1 5 3 14 5 22 4 23 10 55 13 69 1 7 4 23 6 35 3 12 7 31 8 41 2 9 6 30 10 46 6 35 10 51 11 62 2 8 4 18 9 41 1 6 3 18 5 26 1 7 3 18 5 25 1 6 3 18 5 27 4 23 10 55 15 76 1 9 6 30 9 46 3 15 6 31 7 35 2 10 6 31 7 39 1 4 2 10 3 13 0 3 1 8 1 11 1 3 2 8 3 11 1 6 4 22 6 33 1 7 3 14 6 29 1 3 2 7 2 8 0 4 3 10 4 10 1 0 2 -2 3 -4z m-23 -33 c0 -1 -1 -6 -2 -12 -1 -5 -3 -14 -4 -20 -3 -18 -9 -48 -10 -55 -1 -4 -3 -15 -5 -24 -4 -23 -9 -45 -11 -59 -2 -6 -4 -18 -5 -25 -2 -8 -4 -17 -4 -20 -2 -5 -5 -22 -8 -41 -1 -5 -3 -11 -3 -12 -1 -3 -4 -17 -6 -33 -1 -5 -3 -15 -5 -22 -1 -7 -2 -16 -3 -18 0 -2 -2 -10 -3 -17 -4 -16 -4 -21 -6 -32 -2 -9 -6 -28 -9 -40 -2 -10 -13 -68 -14 -74 0 -3 -2 -12 -4 -20 -2 -8 -5 -23 -6 -33 -6 -31 -12 -61 -14 -70 -1 -5 -2 -12 -3 -16 -1 -4 -2 -12 -3 -18 -2 -7 -5 -22 -7 -34 -2 -12 -5 -22 -5 -23 0 -1 -5 -1 -16 -1 -17 -1 -19 -1 -19 -6 1 -3 3 -4 19 -4 10 0 13 0 13 -1 0 -3 0 -5 -2 -16 -1 -7 -3 -15 -4 -20 0 -5 -2 -13 -3 -18 -2 -9 -4 -21 -8 -43 -1 -6 -4 -19 -5 -28 -3 -15 -7 -35 -8 -44 -1 -2 -2 -9 -4 -18 -1 -9 -4 -23 -6 -32 -2 -10 -3 -18 -4 -19 0 -2 -2 -1 -6 4 -3 2 -9 10 -15 16 -6 6 -12 14 -15 16 -2 3 -6 8 -8 10 -3 2 -8 9 -13 14 -5 5 -17 19 -28 31 -11 12 -25 27 -31 33 -6 6 -15 16 -20 22 -6 6 -12 13 -13 15 -2 2 -12 13 -22 24 -31 34 -35 38 -45 49 -6 6 -10 12 -10 13 0 1 5 10 8 15 2 2 5 7 7 12 5 9 10 18 19 33 6 10 23 42 25 47 2 6 4 8 25 44 6 10 11 19 12 20 1 3 13 24 19 34 2 4 7 13 11 20 4 6 8 14 10 18 3 4 6 10 9 15 3 5 9 16 15 26 5 9 12 21 14 26 3 4 7 11 9 15 5 8 10 17 25 44 6 11 12 22 14 24 1 3 6 11 11 20 8 14 26 46 40 71 4 6 10 16 14 23 3 6 9 16 11 20 3 5 6 11 7 12 1 1 4 6 6 11 2 4 5 9 6 10 2 3 11 19 23 41 8 13 13 22 27 46 3 5 5 9 5 9 0 1 2 4 4 8 3 4 9 15 14 24 12 22 21 36 22 36 1 0 1 -1 1 -3z"/>
<path d="M808 269 c-4 0 -7 -3 -5 -6 1 -2 2 -2 5 -2 3 0 10 0 18 0 11 0 13 0 15 1 3 3 2 6 -1 7 -3 1 -26 1 -32 0z"/>
<path d="M508 268 c-7 -1 -10 -3 -9 -6 1 -3 4 -3 20 -3 13 0 15 0 17 2 3 2 3 5 0 6 -2 1 -20 2 -28 1z"/>
<path d="M566 268 c-5 -2 -5 -7 -1 -9 4 -1 31 0 34 2 4 1 4 5 0 7 -3 1 -29 1 -33 0z"/>
<path d="M628 268 c-3 -1 -2 -6 1 -8 4 -2 31 -1 33 1 3 2 2 5 -1 7 -3 1 -29 1 -33 0z"/>
<path d="M691 268 c-3 -2 -4 -4 -1 -7 2 -2 3 -2 16 -2 15 0 19 1 20 5 0 4 -2 4 -18 5 -10 0 -15 0 -17 -1z"/>
<path d="M747 268 c-2 -1 -3 -5 0 -7 2 -2 30 -2 32 0 3 2 4 5 2 6 -1 2 -4 2 -16 2 -9 0 -17 -1 -18 -1z"/>
<path d="M318 267 c-4 -1 -6 -3 -4 -6 1 -2 5 -3 20 -3 14 0 18 1 18 5 0 4 -3 4 -17 5 -8 0 -16 -1 -17 -1z"/>
<path d="M377 266 c-2 -3 -2 -5 1 -7 1 0 7 0 15 -1 14 0 18 1 18 5 0 4 -4 5 -18 5 -12 0 -13 0 -16 -2z"/>
<path d="M438 266 c-2 -2 -2 -4 0 -6 2 -2 25 -3 30 -1 5 1 6 4 4 7 -1 2 -2 2 -17 2 -13 0 -16 0 -17 -2z"/>
<path d="M31 267 c-4 -2 -4 -6 0 -7 2 -1 9 -1 17 -1 11 0 14 0 16 2 3 1 3 5 0 6 -2 1 -30 1 -33 0z"/>
<path d="M95 267 c-3 0 -5 -1 -6 -1 -2 -1 -1 -6 1 -7 1 0 7 -1 15 -1 13 0 13 0 15 2 5 5 1 8 -12 8 -5 0 -11 -1 -13 -1z"/>
<path d="M150 267 c-6 -1 -8 -2 -8 -5 1 -3 5 -4 19 -4 12 0 14 0 15 2 3 2 2 5 -1 7 -3 1 -13 1 -25 0z"/>
<path d="M202 267 c-6 -2 -4 -7 2 -8 6 -1 22 -1 24 0 4 2 5 5 2 7 -2 2 -4 2 -14 2 -6 0 -13 -1 -14 -1z"/>
</g>
</svg>